<svg xmlns="http://www.w3.org/2000/svg" viewBox="0 0 800 800">
  <rect width="800" height="800" fill="#f8f5f0"/>
  <g transform="translate(400, 400)">
    <!-- Three-leaf logo centered -->
    <path d="M -100,-280 C -80,-320 -40,-360 0,-380 C 40,-360 80,-320 100,-280 C 120,-200 100,-120 80,-60 L 0,0 L -80,-60 C -100,-120 -120,-200 -100,-280 Z" fill="#000000"/>
    <path d="M -260,-80 C -300,-100 -340,-140 -360,-180 C -340,-220 -300,-260 -260,-280 C -180,-300 -100,-280 -40,-260 L 0,-180 L -40,-100 C -100,-80 -180,-60 -260,-80 Z" fill="#000000"/>
    <path d="M 260,-80 C 300,-100 340,-140 360,-180 C 340,-220 300,-260 260,-280 C 180,-300 100,-280 40,-260 L 0,-180 L 40,-100 C 100,-80 180,-60 260,-80 Z" fill="#000000"/>
  </g>
</svg>
